<?xml version="1.0" standalone="no"?>
<!DOCTYPE svg PUBLIC "-//W3C//DTD SVG 20010904//EN"
 "http://www.w3.org/TR/2001/REC-SVG-20010904/DTD/svg10.dtd">
<svg version="1.0" xmlns="http://www.w3.org/2000/svg"
 width="455.000000pt" height="139.000000pt" viewBox="0 0 455.000000 139.000000"
 preserveAspectRatio="xMidYMid meet">

<g transform="translate(0.000000,139.000000) scale(0.100000,-0.100000)"
fill="#000000" stroke="none">
<path d="M3973 1190 c-85 -18 -160 -74 -199 -150 -26 -51 -31 -184 -10 -247
20 -62 74 -126 130 -156 35 -19 57 -22 146 -22 89 0 111 3 145 22 97 52 148
142 148 262 0 81 -14 127 -60 194 -50 72 -195 119 -300 97z m131 -158 c59 -53
61 -206 4 -259 -50 -45 -123 -31 -154 29 -23 45 -23 152 0 196 30 58 104 75
150 34z"/>
<path d="M1406 1168 c5 -7 45 -68 90 -135 l82 -122 -99 -146 -100 -145 105 0
104 0 45 76 45 77 44 -76 43 -76 103 -1 c56 0 102 2 102 5 0 3 -38 63 -85 135
-47 71 -88 135 -90 143 -3 7 12 37 33 67 79 115 128 185 136 198 5 9 -16 12
-96 12 l-103 0 -32 -56 c-18 -31 -33 -60 -33 -65 0 -25 -23 -2 -55 56 l-37 65
-104 0 c-81 0 -103 -3 -98 -12z"/>
<path d="M2040 900 l0 -280 235 0 235 0 0 65 0 65 -140 0 c-139 0 -140 0 -146
24 -3 14 -3 34 1 45 6 20 14 21 116 21 l109 0 0 65 0 64 -112 3 -113 3 0 35 0
35 133 3 132 3 0 64 0 65 -225 0 -225 0 0 -280z"/>
<path d="M2592 904 l3 -279 87 -3 87 -3 3 98 c3 98 3 98 30 101 14 2 45 -2 67
-8 42 -11 53 -28 56 -85 1 -16 2 -47 3 -67 l2 -38 96 0 c88 0 95 2 88 18 -4 9
-10 53 -13 97 -7 89 -19 118 -57 138 l-26 14 27 17 c53 35 71 131 37 196 -35
65 -71 74 -295 79 l-197 3 2 -278z m302 136 c33 -12 45 -55 22 -78 -12 -12
-34 -17 -79 -17 l-62 0 -3 39 c-2 21 -1 44 2 52 6 16 81 19 120 4z"/>
<path d="M3120 1175 c0 -2 20 -37 44 -77 24 -40 71 -119 105 -176 l61 -103 0
-99 0 -100 90 0 90 0 0 102 0 102 92 155 c50 86 98 166 106 179 l14 22 -104 0
-104 0 -46 -90 c-33 -65 -48 -86 -55 -77 -6 6 -27 47 -49 90 l-39 77 -102 0
c-57 0 -103 -2 -103 -5z"/>
<path d="M1680 489 c0 -51 4 -78 10 -74 6 3 10 40 10 81 0 43 -4 74 -10 74 -6
0 -10 -34 -10 -81z"/>
<path d="M2030 560 c0 -5 4 -10 9 -10 6 0 13 5 16 10 3 6 -1 10 -9 10 -9 0
-16 -4 -16 -10z"/>
<path d="M3440 490 c0 -47 4 -80 10 -80 6 0 10 33 10 80 0 47 -4 80 -10 80 -6
0 -10 -33 -10 -80z"/>
<path d="M3560 554 c0 -14 3 -14 15 -4 8 7 15 14 15 16 0 2 -7 4 -15 4 -8 0
-15 -7 -15 -16z"/>
<path d="M3810 560 c0 -5 5 -10 10 -10 6 0 10 5 10 10 0 6 -4 10 -10 10 -5 0
-10 -4 -10 -10z"/>
<path d="M2778 543 c-2 -10 -2 -43 1 -73 5 -41 10 -56 24 -58 9 -2 17 1 17 7
0 6 -4 11 -10 11 -14 0 -12 64 3 79 10 11 10 14 0 18 -7 3 -13 11 -13 19 0 20
-17 17 -22 -3z"/>
<path d="M1402 518 c-23 -23 -14 -47 21 -56 37 -10 42 -26 10 -30 -13 -2 -23
1 -23 7 0 6 -4 11 -10 11 -22 0 -8 -30 17 -36 32 -8 57 6 61 34 3 16 -4 23
-29 30 -18 4 -35 14 -37 21 -4 11 4 12 34 7 34 -7 36 -6 25 8 -16 19 -52 21
-69 4z"/>
<path d="M1541 511 c-25 -25 -27 -49 -5 -79 22 -31 63 -26 84 11 13 24 13 30
0 55 -20 34 -53 39 -79 13z m59 -16 c10 -12 10 -21 1 -41 -14 -31 -45 -29 -49
4 -7 48 21 69 48 37z"/>
<path d="M1752 479 c3 -60 24 -82 57 -62 15 10 21 10 24 0 3 -7 6 16 6 51 1
72 -16 85 -21 15 -3 -40 -6 -48 -23 -48 -17 0 -20 8 -23 48 -2 26 -8 47 -13
47 -6 0 -9 -22 -7 -51z"/>
<path d="M1907 512 c-21 -23 -22 -66 -1 -86 22 -22 61 -20 74 4 12 23 8 25
-20 8 -28 -18 -55 10 -46 46 7 28 33 35 54 14 17 -17 28 -2 12 17 -17 20 -53
19 -73 -3z"/>
<path d="M2030 476 c0 -30 5 -58 10 -61 6 -4 10 13 10 44 0 28 0 54 1 58 0 4
-4 9 -10 11 -7 2 -11 -17 -11 -52z"/>
<path d="M2120 514 c-8 -8 -13 -28 -13 -44 0 -37 19 -60 49 -60 31 0 54 25 54
59 0 50 -61 81 -90 45z m64 -26 c14 -23 -3 -53 -30 -53 -20 0 -31 33 -20 61 7
19 35 14 50 -8z"/>
<path d="M2260 469 c0 -33 4 -59 10 -59 6 0 10 15 10 34 0 47 9 66 31 66 16 0
19 -8 19 -44 0 -25 5 -48 11 -51 7 -5 9 13 7 52 l-3 58 -42 1 -43 2 0 -59z"/>
<path d="M2416 508 c-9 -12 -16 -29 -16 -38 0 -47 62 -78 90 -45 17 21 6 29
-18 14 -16 -10 -23 -10 -36 0 -22 19 -13 28 30 29 47 2 50 6 30 37 -21 32 -59
33 -80 3z m62 -15 c2 -8 -6 -13 -22 -13 -25 0 -33 10 -19 24 10 10 36 3 41
-11z"/>
<path d="M2562 518 c-21 -21 -13 -39 23 -54 19 -8 35 -19 35 -24 0 -14 -34
-12 -48 2 -17 17 -28 2 -12 -17 24 -29 80 -15 80 20 0 18 -8 26 -35 35 -43 14
-36 34 8 24 28 -6 30 -5 18 10 -16 19 -52 21 -69 4z"/>
<path d="M2870 514 c-8 -8 -13 -28 -13 -44 0 -55 51 -80 88 -44 21 21 13 29
-13 13 -23 -14 -52 -6 -52 15 0 12 10 15 40 12 32 -3 40 0 40 14 0 41 -65 65
-90 34z m68 -21 c2 -9 -7 -13 -27 -13 -30 0 -39 9 -24 24 11 10 46 3 51 -11z"/>
<path d="M3017 512 c-21 -23 -22 -66 -1 -86 22 -22 61 -20 74 4 12 23 8 25
-19 8 -15 -9 -23 -9 -35 1 -36 30 -3 87 36 62 24 -15 35 -7 18 14 -17 20 -53
19 -73 -3z"/>
<path d="M3140 468 c0 -32 4 -58 10 -58 6 0 10 15 10 33 0 41 21 73 44 64 11
-5 16 -19 16 -52 0 -25 5 -45 10 -45 15 0 12 96 -2 108 -7 6 -30 10 -50 9
l-38 -1 0 -58z"/>
<path d="M3306 514 c-34 -33 -10 -104 34 -104 27 0 50 27 50 60 0 33 -23 60
-50 60 -10 0 -26 -7 -34 -16z m59 -24 c10 -33 -4 -62 -28 -58 -22 3 -34 35
-23 64 8 21 44 17 51 -6z"/>
<path d="M3526 515 c-21 -21 -21 -69 0 -90 24 -24 66 -15 82 18 27 57 -39 115
-82 72z m59 -45 c0 -29 -4 -36 -22 -38 -17 -3 -24 3 -29 22 -7 30 11 58 35 54
11 -2 16 -14 16 -38z"/>
<path d="M3675 514 c-20 -20 -19 -68 1 -88 8 -9 27 -16 42 -16 25 0 25 -1 9
-17 -13 -13 -19 -14 -29 -5 -17 17 -39 15 -32 -3 9 -23 43 -28 69 -11 23 15
25 23 25 85 l0 68 -35 1 c-19 1 -41 -5 -50 -14z m61 -29 c8 -34 -1 -55 -25
-55 -22 0 -38 38 -27 65 9 25 45 18 52 -10z"/>
<path d="M3810 470 c0 -33 4 -60 10 -60 6 0 10 27 10 60 0 33 -4 60 -10 60 -6
0 -10 -27 -10 -60z"/>
<path d="M3897 512 c-35 -39 -11 -102 38 -102 25 0 53 34 36 44 -5 3 -11 -1
-15 -9 -9 -25 -45 -18 -52 11 -9 36 18 64 46 46 28 -17 32 -15 20 8 -13 25
-52 26 -73 2z"/>
<path d="M4030 515 c-16 -19 -5 -34 12 -17 17 17 48 15 48 -3 0 -9 -9 -15 -22
-15 -34 0 -50 -15 -46 -41 3 -21 8 -24 49 -25 l46 -1 -4 46 c-3 25 -6 52 -8
59 -6 17 -60 15 -75 -3z m57 -70 c-8 -19 -47 -20 -47 -1 0 8 10 16 23 18 28 5
31 3 24 -17z"/>
<path d="M4183 524 c-26 -11 -14 -45 22 -60 20 -8 33 -19 30 -24 -8 -14 -39
-12 -53 2 -9 9 -12 8 -12 -5 0 -20 47 -34 69 -20 9 6 17 20 19 31 3 16 -4 23
-29 30 -45 11 -53 37 -10 29 24 -5 31 -3 29 6 -5 13 -44 19 -65 11z"/>
</g>
</svg>
