<?xml version="1.0" encoding="UTF-8"?>
<svg id="Capa_2" data-name="Capa 2" xmlns="http://www.w3.org/2000/svg" viewBox="0 0 332.23 80.21">
  <defs>
    <style>
      .cls-1 {
        fill: #fff;
      }

      .cls-2 {
        fill: #0d488f;
      }

      .cls-3 {
        fill: #c7d21c;
      }
    </style>
  </defs>
  <g id="Capa_1-2" data-name="Capa 1">
    <g>
      <path class="cls-3" d="M0,0c.74,0,1.29,0,1.84,0,20.23,0,40.45-.02,60.68,0,3.96,0,7.57,1.08,10.37,4.1,2.21,2.39,3.4,5.27,3.86,8.46,.18,1.26,.24,2.54,.25,3.81,.01,19.61,.01,39.22,.01,58.83,0,.51,0,1.03,0,1.67-.52,.03-.94,.06-1.36,.06-20.43,0-40.85,.04-61.28-.02-8.41-.02-13.21-5.29-14.23-13.12C0,62.79,0,61.75,0,60.71,0,40.98,0,21.25,0,1.52,0,1.09,0,.66,0,0ZM24.28,26.24c0,6.27,0,12.54,0,18.8,0,1.87,.63,2.31,2.33,1.65,4.08-1.6,8.15-3.21,12.22-4.83,1.74-.69,2.28-1.5,2.28-3.36,0-8.06,0-16.13,0-24.19,0-1.71-.67-2.85-2.32-3.49-4.04-1.58-8.05-3.25-12.07-4.87-1.84-.74-2.44-.34-2.44,1.62,0,6.23,0,12.46,0,18.68Zm-1.3-1.92c-.4,.36-.69,.58-.93,.85-4.88,5.37-9.15,11.17-12.3,17.74-2.52,5.26-4.44,10.68-3.97,16.65,.27,3.44,1.55,6.41,4.34,8.58,2.93,2.29,6.38,2.99,9.98,3.17,5.4,.26,10.65-.69,15.83-2.07,11.89-3.15,23.03-8.15,33.98-13.65,.15-.08,.27-.21,.41-.31-.53-.06-.97,.07-1.4,.23-9.36,3.42-18.8,6.52-28.67,8.14-5.02,.83-10.05,1.25-15.12,.37-7.38-1.28-11.35-5.89-11.28-13.4,.04-4.81,1.35-9.38,3.23-13.75,1.79-4.17,3.86-8.21,5.92-12.55Zm36.08-6.11c-4.41,0-7.94,3.49-7.94,7.86,0,4.41,3.6,7.96,8.03,7.92,4.4-.04,7.89-3.56,7.87-7.95-.02-4.38-3.53-7.84-7.96-7.84Zm10.32,36.3c1.36-.13,1.71-.73,1.39-1.95-.51-1.96-.8-3.98-1.35-5.93-.97-3.43-2.18-6.76-4.64-9.46-2.68-2.94-6.02-3.46-9.19-1.06-1.81,1.37-3.44,3.13-4.73,5-4.2,6.09-6.34,13.06-8.13,20.14-.05,.18,.04,.39,.09,.93,.26-.61,.37-.9,.51-1.17,1.85-3.88,3.58-7.82,5.58-11.62,1.63-3.11,3.6-6.05,6.43-8.26,3.2-2.5,6.05-2.2,8.66,.93,2.37,2.85,3.6,6.26,4.63,9.75,.27,.9,.51,1.82,.75,2.71Z"/>
      <path class="cls-2" d="M231.62,58.94h-15.32c-.18-1.05-.44-2.09-.51-3.14-.14-2.26-.23-4.53-.26-6.8-.07-3.99-1.58-5.73-5.6-6.08-2.34-.21-4.69-.22-7.2-.34v16.32h-14.94V12.86c.45,0,.88,0,1.31,0,7.23,0,14.47-.1,21.69,.04,4,.07,8.02,.36,11.83,1.83,4.19,1.62,6.51,4.57,6.99,9.09,.26,2.48,.05,4.83-.77,7.14-.93,2.62-2.73,4.44-5.24,5.58-.29,.13-.57,.27-.85,.42-.06,.03-.08,.13-.2,.36,.4,.2,.78,.45,1.19,.59,4.26,1.38,5.84,4.63,6.04,8.78,.14,2.9,.15,5.81,.25,8.72,.03,.92,.1,1.81,1.12,2.31,.25,.12,.28,.7,.46,1.22Zm-28.93-26.21c2.29,0,4.4,0,6.51,0,.52,0,1.06,.05,1.55-.06,1.08-.25,2.26-.38,3.16-.95,.79-.5,1.56-1.45,1.79-2.34,.7-2.72-.82-5.2-3.61-5.55-3.05-.39-6.17-.3-9.32-.43-.04,.47-.08,.7-.08,.93,0,2.74,0,5.49,0,8.4Z"/>
      <path class="cls-2" d="M283.84,36.79c.09-6.88,1.43-12.19,5.08-16.74,3.16-3.94,7.28-6.36,12.16-7.53,5.93-1.43,11.79-1.18,17.43,1.16,6.94,2.89,11.11,8.28,12.85,15.47,1.63,6.72,1.03,13.3-2.3,19.43-3.45,6.35-9.01,9.81-16.02,11.09-4.95,.91-9.85,.57-14.58-1.12-7.63-2.72-12.11-8.27-13.82-16.08-.49-2.24-.64-4.55-.8-5.7Zm33.67-.58c-.46-2.48-.7-4.67-1.3-6.75-.75-2.59-2.2-4.79-4.8-5.95-4.5-2.01-9.39,0-11.22,4.81-1.97,5.15-1.86,10.39,.19,15.5,1.35,3.35,3.96,5.17,7.61,5.16,3.67,0,6.45-1.71,7.7-5.17,.9-2.51,1.26-5.21,1.82-7.61Z"/>
      <path class="cls-2" d="M142.21,12.92h37.39v10.57h-22.43v6.83h18.85v10.61h-18.81v7.32h23.3v10.63h-38.3V12.92Z"/>
      <path class="cls-2" d="M89.25,12.86c5.47,0,10.75-.01,16.02,.03,.35,0,.85,.37,1.03,.71,1.82,3.23,3.58,6.48,5.36,9.73,.26,.48,.55,.94,.94,1.63,.72-1.27,1.33-2.32,1.92-3.38,1.46-2.65,2.91-5.31,4.4-7.94,.18-.32,.61-.73,.92-.73,5.31-.05,10.62-.03,16.16-.03-.34,.53-.58,.93-.84,1.3-4.61,6.6-9.21,13.21-13.86,19.78-.63,.89-.66,1.5-.05,2.41,4.85,7.26,9.64,14.55,14.44,21.83,.13,.19,.21,.41,.4,.77h-1.16c-4.84,0-9.67-.02-14.51,.02-.73,0-1.12-.23-1.49-.87-2-3.54-4.06-7.04-6.1-10.55-.27-.47-.57-.92-.97-1.56-.31,.49-.52,.8-.71,1.13-2.13,3.69-4.25,7.39-6.42,11.06-.2,.34-.68,.74-1.03,.75-5.24,.04-10.47,.02-15.71,.01-.06,0-.13-.07-.29-.17,1.8-2.63,3.58-5.25,5.38-7.86,3.36-4.89,6.71-9.79,10.11-14.66,.56-.8,.6-1.35,.03-2.2-4.53-6.75-9-13.54-13.49-20.32-.15-.23-.28-.47-.52-.87Z"/>
      <path class="cls-2" d="M280.96,12.86c-3.26,5.52-6.37,10.81-9.49,16.08-2.37,4.01-4.78,8-7.12,12.03-.32,.55-.49,1.27-.49,1.91-.04,4.87-.02,9.74-.02,14.61,0,.43,0,.86,0,1.38h-14.97v-1.24c0-4.71,.04-9.42-.03-14.13-.01-.86-.27-1.82-.71-2.56-5.2-8.95-10.46-17.87-15.69-26.79-.2-.34-.37-.7-.63-1.19,.43-.04,.77-.09,1.1-.09,4.83,0,9.67,.01,14.5-.02,.74,0,1.11,.23,1.45,.9,2.26,4.52,4.57,9.02,6.86,13.53,.19,.38,.41,.74,.73,1.31,.32-.54,.57-.92,.78-1.32,2.25-4.43,4.52-8.86,6.73-13.31,.41-.83,.89-1.11,1.82-1.1,4.59,.06,9.19,.03,13.79,.03h1.41Z"/>
      <path class="cls-2" d="M283.25,68.38c.11-.57,.17-.9,.24-1.24,.75-.27,1.02-.02,1.01,.75-.03,2.83,.02,5.66-.03,8.5-.03,1.91-1.18,3.37-2.8,3.68-2.4,.46-3.94-.13-4.65-1.8-.06-.14-.06-.3-.16-.81,.58,.23,1.11,.27,1.34,.55,.99,1.18,1.85,1.52,3.21,1.07,1.27-.42,1.77-1.19,1.76-2.75,0-.3-.05-.6-.05-.7-1.04,.25-2.05,.74-3.02,.68-2.98-.18-3.74-3.45-3.54-5.43,.19-1.93,.93-3.64,3.16-3.89,.82-.09,1.71,.32,2.54,.58,.31,.1,.54,.43,.99,.8Zm.05,3.76c-.07-.77-.08-1.33-.19-1.88-.27-1.31-1.09-2.1-2.21-2.17-1.45-.1-2.47,.36-2.68,1.62-.21,1.29-.15,2.68,.1,3.97,.2,1.06,1.16,1.58,2.29,1.56,1.1-.03,1.93-.52,2.33-1.56,.21-.55,.27-1.15,.36-1.53Z"/>
      <path class="cls-2" d="M218.04,71.91h-6.52c-.36,1.44,.1,2.59,1.16,3.11,1.37,.66,2.65,.37,3.66-.77,.34-.38,.8-.65,1.33-.83-.05,1.5-.91,2.34-2.12,2.74-1.65,.54-3.27,.36-4.51-.97-1.53-1.63-1.56-5.02-.17-6.77,1.09-1.37,2.88-1.9,4.61-1.36,1.35,.42,2.45,2.01,2.56,3.72,.02,.32,0,.64,0,1.14Zm-1.4-1.14c.01-1.83-.94-2.74-2.72-2.68-1.52,.05-2.57,1.18-2.45,2.68h5.17Z"/>
      <path class="cls-2" d="M180.38,71.91h-6.54c-.33,1.46,.13,2.61,1.18,3.11,1.37,.65,2.66,.34,3.66-.79,.33-.38,.81-.64,1.43-1.12-.07,1.94-1.35,3.03-3.52,3.32-1.57,.21-3.35-.89-3.98-2.48-.56-1.41-.59-2.85-.06-4.29,.69-1.88,2.47-3.08,4.23-2.87,2.04,.25,3.45,1.82,3.59,3.98,.02,.32,0,.64,0,1.13Zm-1.44-1.14c.11-1.63-.76-2.63-2.28-2.69-1.79-.07-2.91,.95-2.89,2.69h5.18Z"/>
      <path class="cls-2" d="M306.73,69.98c.18-1.69,.83-2.58,2.07-2.91,1.55-.41,3.11-.4,4.35,.75,.38,.35,.54,1.06,.56,1.62,.07,1.59,0,3.19,.05,4.78,.02,.39,.34,.78,.54,1.16,.11,.21,.26,.39,.39,.58-.25,.15-.6,.5-.73,.43-.58-.3-1.09-.72-1.69-1.15-.71,.29-1.62,.75-2.58,1.03-1.54,.46-3.23-.54-3.4-2.23-.14-1.4,.65-2.58,2.5-2.93,.82-.16,1.68-.11,2.47-.32,.45-.12,1.11-.54,1.15-.89,.07-.52-.16-1.32-.55-1.62-1.3-1-3.13-.43-3.91,1-.16,.29-.67,.39-1.23,.7Zm5.56,1.6c-1.08,.19-2.17,.37-3.25,.59-1.01,.21-1.52,.81-1.32,1.88,.21,1.11,1.08,1.4,1.97,1.27,1.77-.27,3.25-.97,2.6-3.73Z"/>
      <path class="cls-2" d="M156.14,71.73c-.55,1.15-.9,2.48-1.69,3.43-1.64,1.96-4.74,1.58-6.11-.6-1.04-1.66-1.1-3.44-.36-5.22,.65-1.58,2.38-2.67,3.85-2.53,1.88,.17,3.46,1.57,3.83,3.4,.09,.47,.15,.94,.22,1.41,.09,.04,.18,.08,.26,.12Zm-1.67-.31c-.07-.32-.15-.99-.36-1.62-.37-1.13-1.18-1.78-2.39-1.8-1.26-.02-2.1,.62-2.52,1.8-.48,1.36-.47,2.72,.17,4.04,.44,.9,1.17,1.37,2.17,1.42,1.71,.08,2.83-1.26,2.93-3.83Z"/>
      <path class="cls-2" d="M249.76,76.44c-1.47-.18-2.71-.73-3.44-2.07-.95-1.75-.98-3.55-.09-5.34,.73-1.47,2.01-2.21,3.56-2.2,1.49,0,2.76,.73,3.48,2.14,.95,1.87,.91,3.73-.15,5.54-.75,1.28-1.97,1.77-3.36,1.93Zm2.81-5.09c-.06-.3-.15-.89-.32-1.45-.36-1.18-1.16-1.87-2.43-1.91-1.23-.04-2.08,.59-2.55,1.92-.46,1.33-.42,2.64,.21,3.92,.47,.95,1.25,1.41,2.29,1.42,1.68,0,2.78-1.42,2.8-3.89Z"/>
      <path class="cls-2" d="M268.24,76.44c-1.47-.18-2.71-.71-3.45-2.06-.98-1.8-.99-3.62-.05-5.44,.73-1.41,1.99-2.12,3.49-2.11,1.5,0,2.76,.72,3.48,2.13,.95,1.86,.93,3.72-.14,5.54-.75,1.28-1.97,1.78-3.34,1.94Zm-2.82-4.61c.07,.32,.15,.99,.36,1.62,.38,1.12,1.17,1.78,2.4,1.79,1.27,.02,2.1-.63,2.52-1.8,.49-1.36,.48-2.72-.18-4.03-.57-1.12-1.51-1.57-2.76-1.36-1.4,.24-2.24,1.48-2.33,3.79Z"/>
      <path class="cls-2" d="M103.45,66.8c1.42,.17,2.63,.68,3.37,1.96,1.02,1.78,1.06,3.6,.16,5.44-.72,1.47-2.01,2.21-3.55,2.21-1.49,0-2.76-.71-3.48-2.13-.94-1.87-.92-3.73,.14-5.54,.75-1.28,1.97-1.78,3.36-1.94Zm2.81,4.68c-.06-.32-.13-.96-.32-1.55-.45-1.33-1.3-1.97-2.53-1.93-1.27,.03-2.05,.73-2.45,1.9-.44,1.29-.41,2.58,.14,3.82,.54,1.22,1.6,1.72,2.93,1.46,1.33-.26,2.14-1.5,2.24-3.7Z"/>
      <path class="cls-2" d="M160.45,67.08h1.13c.05,.44,.09,.82,.15,1.33,.26-.19,.46-.3,.61-.46,1.04-1.12,2.29-1.33,3.69-.88,1.31,.42,1.74,1.53,1.8,2.7,.11,2.1,.03,4.21,.03,6.37h-1.28c0-1.76,0-3.51,0-5.25,0-2.11-.5-2.81-2.02-2.83-1.77-.03-2.83,.99-2.88,2.89-.05,1.7,0,3.41,0,5.19-.46,.02-.8,.04-1.23,.06v-9.12Z"/>
      <path class="cls-2" d="M233.81,76.21v-9.11c.39-.02,.76-.04,1.16-.05,.06,.48,.1,.87,.16,1.38,.26-.2,.46-.31,.61-.47,1.08-1.15,2.37-1.36,3.8-.82,1.4,.52,1.66,1.78,1.72,3.02,.09,1.95,.02,3.9,.02,5.98-.41,.03-.78,.06-1.3,.1,0-1.85,0-3.59,0-5.33,0-2.11-.5-2.8-2.02-2.83-1.78-.03-2.8,.98-2.88,2.89-.04,.88,0,1.75,0,2.63,0,.83,0,1.66,0,2.55-.46,.02-.8,.04-1.26,.06Z"/>
      <path class="cls-2" d="M124.15,67.1c.44-.03,.78-.05,1.22-.08v9q-.89,.21-1.15-.96c-.72,.4-1.38,.92-2.13,1.15-2.13,.64-3.79-.48-3.91-2.67-.11-2.11-.02-4.22-.02-6.42h1.3c0,1.86,0,3.69,0,5.52,0,1.84,.61,2.69,1.94,2.73,1.56,.05,2.71-1.12,2.74-2.82,.03-1.79,0-3.58,0-5.44Z"/>
      <path class="cls-2" d="M318.72,73.32c.34,.26,.88,.45,.99,.78,.47,1.39,3.45,1.7,4.6,.5,.65-.68,.41-1.65-.55-1.99-1.04-.38-2.12-.62-3.19-.9-1.04-.28-1.84-.79-1.91-1.98-.07-1.17,.58-2.05,1.78-2.54,1.2-.49,2.4-.48,3.56,.09,.85,.42,1.47,1.06,1.48,2.44-.51-.28-.97-.38-1.18-.67-.86-1.18-2.77-1.59-3.86-.67-.3,.25-.47,.84-.42,1.24,.04,.33,.45,.76,.78,.88,1.01,.35,2.06,.57,3.09,.85,1.14,.3,1.96,.94,2.02,2.18,.05,1.1-.92,2.24-2.11,2.63-1.3,.43-2.58,.32-3.83-.2-1.01-.42-1.53-1.21-1.55-2.29l.29-.33Z"/>
      <path class="cls-2" d="M94.99,69.72c-.52-.29-.98-.4-1.2-.7-.86-1.18-2.77-1.58-3.86-.66-.3,.25-.47,.85-.41,1.25,.04,.33,.45,.75,.79,.87,.97,.34,1.98,.56,2.98,.81,1.18,.29,2.07,.91,2.13,2.22,.05,1.24-1.06,2.52-2.47,2.66-1.14,.11-2.35,0-3.47-.27-1.05-.26-1.53-1.18-1.55-2.32,.67-.18,1.05-.18,1.39,.61,.61,1.42,3.68,1.57,4.58,.31,.52-.73,.28-1.58-.64-1.91-1.04-.37-2.13-.61-3.19-.9-1.04-.28-1.84-.79-1.9-1.98-.06-1.18,.59-2.06,1.79-2.54,1.16-.46,2.32-.48,3.45,.05,.91,.42,1.55,1.07,1.59,2.5Z"/>
      <path class="cls-2" d="M191.45,69.72c-.55-.29-1.01-.39-1.22-.68-.88-1.19-2.75-1.6-3.86-.68-.3,.25-.48,.84-.43,1.23,.04,.33,.44,.76,.78,.88,.97,.35,1.98,.57,2.98,.82,1.18,.29,2.08,.9,2.15,2.2,.06,1.23-1.04,2.53-2.44,2.68-1.1,.12-2.27,.02-3.36-.22-1.11-.25-1.64-1.16-1.69-2.35,.66-.22,1.04-.21,1.39,.57,.63,1.43,3.65,1.61,4.57,.35,.53-.72,.31-1.58-.6-1.91-1.04-.38-2.12-.62-3.19-.91-1.04-.27-1.84-.79-1.92-1.97-.08-1.17,.57-2.06,1.77-2.55,1.2-.49,2.39-.48,3.56,.08,.87,.42,1.45,1.08,1.53,2.46Z"/>
      <path class="cls-2" d="M229.48,73.33c-.52,2.43-2.18,3.05-3.64,3.09-1.95,.05-3.49-1.4-3.86-3.41-.37-1.99-.06-3.82,1.51-5.22,1.15-1.02,2.57-1.25,4.01-.71,1.21,.45,1.84,1.44,2.02,2.82-.38,.04-.72,.08-1,.11-.12-.1-.21-.14-.23-.2-.29-1.23-1.04-1.8-2.33-1.76-1.34,.05-2.17,.48-2.41,1.84-.22,1.25-.16,2.59,.03,3.85,.16,1.07,1.16,1.51,2.15,1.59,.98,.08,1.83-.38,2.22-1.3,.31-.73,.7-1,1.51-.7Z"/>
      <path class="cls-2" d="M302.42,69.94h-1.09c-.66-1.67-1.45-2.14-3.11-1.86-1.05,.18-1.93,1.31-1.97,2.68-.02,.94,.04,1.91,.21,2.83,.23,1.2,1.2,1.69,2.29,1.74,.97,.05,1.8-.43,2.18-1.37,.28-.7,.68-.91,1.45-.63-.2,1.41-.98,2.4-2.29,2.84-1.54,.52-3.03,.21-4.15-1-1.76-1.9-1.52-5.67,.44-7.36,2.1-1.81,5.77-1.09,6.04,2.13Z"/>
      <path class="cls-2" d="M137.4,69.94c-.4,.02-.75,.04-1.07,.05-.69-1.73-1.47-2.19-3.13-1.91-1.05,.18-1.94,1.3-1.97,2.67-.02,.94,.04,1.91,.21,2.83,.23,1.2,1.19,1.69,2.28,1.75,.97,.05,1.8-.43,2.19-1.37,.28-.69,.68-.92,1.36-.67-.14,1.36-1.03,2.57-2.19,2.89-1.57,.44-3.03,.19-4.16-1.02-1.77-1.89-1.53-5.66,.43-7.36,2.09-1.81,5.76-1.11,6.05,2.13Z"/>
      <path class="cls-2" d="M203.77,68.19c-.45-.07-.76-.12-1.13-.18-.03-.15-.13-.37-.07-.43,.28-.29,.61-.53,1.14-.97v-2.13c.46-.03,.83-.06,1.32-.1v2.32c.43,.61,1.92-.17,1.36,1.33-.38,.04-.77,.07-1.31,.12,0,2.14-.04,4.28,.04,6.41,.01,.28,.63,.53,.96,.81,.15,.13,.41,.29,.4,.42-.01,.16-.22,.37-.4,.45-1.23,.53-2.29-.2-2.31-1.63-.03-2.11,0-4.21,0-6.43Z"/>
      <path class="cls-2" d="M113.13,76.15h-1.14v-12.65c.36-.03,.7-.05,1.14-.09v12.73Z"/>
      <path class="cls-2" d="M259.46,76.14h-1.17v-12.65h1.17v12.65Z"/>
      <path class="cls-2" d="M142.87,76.15h-1.14v-9.05c.36-.03,.7-.05,1.14-.08v9.13Z"/>
      <path class="cls-2" d="M290.4,76.2c-.43-.02-.77-.03-1.17-.05v-9.06h1.17v9.11Z"/>
      <path class="cls-2" d="M268.03,65.37c.63-.88,.61-2.53,2.45-2.1-.7,.92-1.31,1.81-2.45,2.1Z"/>
      <path class="cls-2" d="M142.88,64.94h-1.12v-1.45c.34-.02,.68-.04,1.12-.07v1.52Z"/>
      <path class="cls-2" d="M289.27,63.46h1.12v1.46c-.34,.02-.68,.03-1.12,.05v-1.51Z"/>
      <path class="cls-1" d="M24.28,26.24c0-6.23,0-12.46,0-18.68,0-1.96,.6-2.36,2.44-1.62,4.03,1.62,8.03,3.29,12.07,4.87,1.64,.65,2.32,1.79,2.32,3.49-.01,8.06,0,16.13,0,24.19,0,1.87-.54,2.67-2.28,3.36-4.07,1.62-8.14,3.23-12.22,4.83-1.7,.67-2.33,.23-2.33-1.65,0-6.27,0-12.54,0-18.8Z"/>
      <path class="cls-1" d="M22.98,24.32c-2.06,4.34-4.13,8.39-5.92,12.55-1.88,4.37-3.19,8.94-3.23,13.75-.07,7.51,3.9,12.12,11.28,13.4,5.07,.88,10.11,.46,15.12-.37,9.86-1.62,19.31-4.72,28.67-8.14,.43-.16,.87-.29,1.4-.23-.13,.11-.26,.24-.41,.31-10.95,5.49-22.09,10.5-33.98,13.65-5.18,1.37-10.43,2.32-15.83,2.07-3.6-.17-7.04-.88-9.98-3.17-2.79-2.18-4.07-5.14-4.34-8.58-.46-5.97,1.45-11.39,3.97-16.65,3.15-6.56,7.42-12.37,12.3-17.74,.24-.27,.54-.49,.93-.85Z"/>
      <path class="cls-1" d="M59.05,18.21c4.43,0,7.94,3.45,7.96,7.84,.02,4.38-3.47,7.9-7.87,7.95-4.43,.04-8.03-3.51-8.03-7.92,0-4.37,3.53-7.86,7.94-7.86Z"/>
      <path class="cls-1" d="M69.37,54.51c-.25-.89-.49-1.8-.75-2.71-1.03-3.49-2.26-6.9-4.63-9.75-2.61-3.13-5.46-3.43-8.66-.93-2.83,2.21-4.8,5.15-6.43,8.26-1.99,3.8-3.73,7.74-5.58,11.62-.13,.28-.24,.56-.51,1.17-.06-.53-.14-.74-.09-.93,1.79-7.09,3.93-14.06,8.13-20.14,1.29-1.87,2.92-3.63,4.73-5,3.17-2.39,6.51-1.87,9.19,1.06,2.46,2.7,3.68,6.03,4.64,9.46,.55,1.95,.84,3.97,1.35,5.93,.32,1.21-.03,1.82-1.39,1.95Z"/>
    </g>
  </g>
</svg>